HIERARCHY
ROOT root
{
	OFFSET 0.000000 0.000000 0.000000
	CHANNELS 6 Xposition Yposition Zposition Zrotation Yrotation Xrotation
	JOINT lhip
	{
		OFFSET 0.058581 -0.082280 -0.017664
		CHANNELS 3 Zrotation Yrotation Xrotation
		JOINT lknee
		{
			OFFSET 0.043451 -0.386469 0.008037
			CHANNELS 3 Zrotation Yrotation Xrotation
			JOINT lankle
			{
				OFFSET -0.014790 -0.426874 -0.037428
				CHANNELS 3 Zrotation Yrotation Xrotation
				JOINT ltoe
				{
					OFFSET 0.041054 -0.060286 0.122042
					CHANNELS 3 Zrotation Yrotation Xrotation
					End Site
					{
						OFFSET 0.000000 0.000000 0.000000
					}
				}
			}
		}
	}
	JOINT rhip
	{
		OFFSET -0.060310 -0.090513 -0.013543
		CHANNELS 3 Zrotation Yrotation Xrotation
		JOINT rknee
		{
			OFFSET -0.043257 -0.383688 -0.004843
			CHANNELS 3 Zrotation Yrotation Xrotation
			JOINT rankle
			{
				OFFSET 0.019056 -0.420046 -0.034562
				CHANNELS 3 Zrotation Yrotation Xrotation
				JOINT rtoe
				{
					OFFSET -0.034840 -0.062106 0.130323
					CHANNELS 3 Zrotation Yrotation Xrotation
					End Site
					{
						OFFSET 0.000000 0.000000 0.000000
					}
				}
			}
		}
	}
	JOINT lowerback
	{
		OFFSET 0.004439 0.124404 -0.038385
		CHANNELS 3 Zrotation Yrotation Xrotation
		JOINT upperback
		{
			OFFSET 0.004488 0.137956 0.026820
			CHANNELS 3 Zrotation Yrotation Xrotation
			JOINT chest
			{
				OFFSET -0.002265 0.056032 0.002855
				CHANNELS 3 Zrotation Yrotation Xrotation
				JOINT lowerneck
				{
					OFFSET -0.013390 0.211636 -0.033468
					CHANNELS 3 Zrotation Yrotation Xrotation
					JOINT upperneck
					{
						OFFSET 0.010113 0.088937 0.050410
						CHANNELS 3 Zrotation Yrotation Xrotation
						End Site
						{
							OFFSET 0.000000 0.000000 0.000000
						}
					}
				}
				JOINT lclavicle
				{
					OFFSET 0.071702 0.114000 -0.018898
					CHANNELS 3 Zrotation Yrotation Xrotation
					JOINT lshoulder
					{
						OFFSET 0.122921 0.045205 -0.019046
						CHANNELS 3 Zrotation Yrotation Xrotation
						JOINT lelbow
						{
							OFFSET 0.255332 -0.015649 -0.022946
							CHANNELS 3 Zrotation Yrotation Xrotation
							JOINT lwrist
							{
								OFFSET 0.265709 0.012698 -0.007375
								CHANNELS 3 Zrotation Yrotation Xrotation
								End Site
								{
									OFFSET 0.000000 0.000000 0.000000
								}
							}
						}
					}
				}
				JOINT rclavicle
				{
					OFFSET -0.082954 0.112472 -0.023707
					CHANNELS 3 Zrotation Yrotation Xrotation
					JOINT rshoulder
					{
						OFFSET -0.113228 0.046853 -0.008472
						CHANNELS 3 Zrotation Yrotation Xrotation
						JOINT relbow
						{
							OFFSET -0.260127 -0.014369 -0.031269
							CHANNELS 3 Zrotation Yrotation Xrotation
							JOINT rwrist
							{
								OFFSET -0.269108 0.006794 -0.006027
								CHANNELS 3 Zrotation Yrotation Xrotation
								End Site
								{
									OFFSET 0.000000 0.000000 0.000000
								}
							}
						}
					}
				}
			}
		}
	}
}
MOTION
Frames: 16
Frame Time: 0.033333
0.576621 0.231800 0.988382 88.520243 3.840911 99.132033 6.324609 4.343786 -2.627752 3.778772 -3.701992 -10.158275 -1.349394 11.540419 -3.066609 0.000000 -0.000000 0.000000 -0.898353 -1.862392 -8.084994 -1.233423 3.684263 -1.077067 4.841929 -6.604251 -3.484914 0.000000 -0.000000 0.000000 0.362114 0.527652 -0.760241 2.574087 -2.707198 -3.831821 -0.740686 1.989505 -6.736920 1.581156 -8.658714 -1.386142 4.683297 -6.031092 -1.400628 -21.718167 8.261707 -6.609548 -60.767484 -2.092006 24.972242 6.102410 -15.385086 12.415390 -6.245394 -9.442226 10.376756 23.374912 -4.017966 -4.479921 53.989766 4.093698 18.559338 -1.581411 13.198470 8.053785 5.356165 3.388252 4.808798 
0.576731 0.231618 0.987944 88.590455 3.821942 99.106108 6.323183 4.309612 -2.627078 3.773932 -3.705047 -10.128982 -1.337719 11.523473 -3.004498 0.000000 -0.000000 0.000000 -0.913537 -1.939959 -8.020704 -1.244364 3.679425 -1.127201 5.002183 -6.604881 -3.426032 0.000000 -0.000000 0.000000 0.390466 0.485176 -0.642460 2.632761 -2.740268 -4.330766 -0.695271 1.838325 -6.547330 1.373852 -8.508277 -1.001959 4.487372 -6.111380 -1.297427 -21.575971 8.114270 -6.501371 -60.924140 -1.793546 24.935095 6.239037 -15.397566 12.338304 -6.248278 -9.381751 10.129542 23.186469 -3.665857 -4.338480 54.145016 3.844828 18.547554 -1.821221 13.272704 8.063121 5.522582 3.328055 4.743474 
0.576919 0.231352 0.987457 88.640840 3.793511 99.173663 6.307600 4.288391 -2.713251 3.769130 -3.670367 -10.142979 -1.426123 11.474119 -2.954861 0.000000 -0.000000 0.000000 -0.947369 -1.942014 -8.045543 -1.229389 3.594660 -1.187160 5.060601 -6.558541 -3.410809 0.000000 -0.000000 0.000000 0.373474 0.462429 -0.853647 2.720996 -2.774920 -4.415484 -0.669558 1.677020 -6.561208 1.061383 -8.273129 -0.375214 4.366528 -6.198340 -1.289702 -21.473544 8.080297 -6.326380 -60.924221 -1.557343 24.964471 6.222439 -15.656495 12.196095 -6.289741 -9.270825 10.009992 23.020313 -3.361840 -4.251861 54.225580 3.764645 18.660064 -1.869311 13.103234 8.185680 5.730037 3.220579 4.595605 
0.577833 0.230489 0.986905 88.975055 3.811785 99.471159 6.405182 4.205976 -3.086179 3.705994 -3.741333 -10.127617 -1.649713 11.408622 -2.933645 0.000000 -0.000000 0.000000 -0.760942 -2.011199 -8.083160 -1.362297 3.388658 -1.546621 5.054034 -6.620351 -3.379745 0.000000 -0.000000 0.000000 0.300938 0.224993 -1.605849 2.862082 -2.914568 -4.212213 -0.595578 1.526768 -6.755716 0.745900 -8.045610 0.617695 4.261628 -6.342999 -1.330796 -21.260311 8.110099 -5.980011 -60.818964 -1.161408 24.995730 6.051000 -16.700633 12.045794 -6.413615 -8.376774 9.962840 22.559863 -2.552968 -3.800136 54.455480 3.758616 18.912921 -1.617569 12.427428 7.988931 6.067107 3.193757 4.138725 
0.578009 0.230292 0.986820 88.940872 3.758274 99.650065 6.298312 4.182726 -3.263633 3.752946 -3.705081 -10.147651 -1.711094 11.441366 -2.909394 0.000000 -0.000000 0.000000 -0.804739 -1.926129 -8.272939 -1.387456 3.315458 -1.550219 5.075992 -6.584934 -3.396940 0.000000 -0.000000 0.000000 0.245819 0.198226 -2.017065 2.966901 -2.935916 -4.032210 -0.572910 1.481376 -7.107347 0.349686 -7.884089 1.401154 4.211899 -6.439647 -1.276045 -21.161638 7.859848 -5.696384 -60.975415 -0.915472 25.119603 6.236288 -16.531193 11.475586 -6.398446 -8.386406 9.932154 22.089847 -1.863194 -3.300407 54.839290 3.520290 19.110561 -1.772099 12.170469 7.356987 5.829811 3.359256 3.688173 
0.578028 0.230212 0.986741 88.930379 3.780603 99.635575 6.301453 4.181377 -3.246039 3.780194 -3.745028 -10.163101 -1.725925 11.463192 -2.909258 0.000000 -0.000000 0.000000 -0.774235 -1.906753 -8.257554 -1.395965 3.318762 -1.567785 5.072072 -6.621268 -3.401254 0.000000 -0.000000 0.000000 0.236301 0.192818 -1.946066 2.948691 -2.922555 -4.094765 -0.544184 1.523737 -7.133209 0.332582 -7.913482 1.405432 4.268289 -6.431285 -1.227193 -21.098544 7.721849 -5.603867 -61.048172 -0.899902 25.135780 6.314143 -16.510431 11.354339 -6.344602 -8.360714 9.883975 21.984398 -1.587943 -3.168146 54.911707 3.425833 19.152276 -1.766893 12.088510 7.059087 5.707824 3.449989 3.506607 
0.578069 0.230134 0.986532 88.895301 3.883073 99.413840 6.416243 4.208405 -2.975558 3.790505 -3.777163 -10.235891 -1.715660 11.458078 -2.884864 0.000000 -0.000000 0.000000 -0.656780 -1.957093 -8.017039 -1.408465 3.357969 -1.613117 5.051863 -6.579750 -3.385334 0.000000 -0.000000 0.000000 0.409080 0.222730 -1.454946 2.892603 -2.912178 -4.443738 -0.520209 1.548670 -6.984168 0.264954 -7.984281 1.223115 4.273092 -6.388455 -1.199940 -21.177201 7.652241 -5.588943 -60.991275 -0.931294 25.084541 6.386547 -16.554702 11.600527 -6.397508 -8.529277 9.908495 21.937881 -1.500421 -3.191104 54.951297 3.415611 19.142603 -1.822720 12.072725 7.104115 5.764124 3.486981 3.376448 
0.578280 0.230025 0.986487 88.890668 3.906920 99.367670 6.448217 4.215650 -2.892546 3.776708 -3.749273 -10.276554 -1.716749 11.429613 -2.887368 0.000000 -0.000000 0.000000 -0.634575 -1.997196 -7.946287 -1.405839 3.370595 -1.632355 5.069949 -6.518452 -3.386207 0.000000 -0.000000 0.000000 0.408633 0.220824 -1.372331 2.906206 -2.942905 -4.546241 -0.485001 1.550555 -6.907014 0.285889 -7.922322 1.147374 4.245776 -6.440001 -1.188030 -21.181199 7.664047 -5.610142 -61.019178 -0.942410 25.054807 6.386253 -16.504063 11.705966 -6.503582 -8.567479 9.914526 22.011544 -1.584041 -3.297859 54.866763 3.440136 19.111929 -1.869252 12.071223 7.275366 5.898215 3.466401 3.419278 
0.578441 0.230041 0.986404 88.885165 3.896237 99.369350 6.414750 4.210587 -2.879446 3.797675 -3.760160 -10.292337 -1.729408 11.417732 -2.881925 0.000000 -0.000000 0.000000 -0.659673 -2.011288 -7.940157 -1.382938 3.348311 -1.638002 5.084397 -6.512538 -3.412409 0.000000 -0.000000 0.000000 0.458678 0.216359 -1.357098 2.888721 -2.940755 -4.616530 -0.511695 1.510283 -6.888699 0.229690 -7.926542 1.188931 4.213950 -6.436871 -1.189998 -21.207984 7.654504 -5.598688 -61.002876 -0.928272 25.023508 6.378288 -16.492902 11.725395 -6.423933 -8.513281 9.838050 21.989308 -1.598627 -3.290180 54.868414 3.501559 19.091245 -1.833050 12.014338 7.341362 5.890309 3.449963 3.445690 
0.578782 0.229934 0.986479 88.848113 3.812110 99.638799 6.268959 4.191564 -3.137863 3.842900 -3.742001 -10.321861 -1.756341 11.454998 -2.862562 0.000000 -0.000000 0.000000 -0.746904 -1.928622 -8.216022 -1.388040 3.347998 -1.647062 5.071826 -6.558688 -3.376889 0.000000 -0.000000 0.000000 0.298150 0.177880 -1.851110 2.948605 -2.938125 -4.337323 -0.525137 1.497321 -7.038862 0.258199 -7.857700 1.162041 4.173558 -6.506632 -1.136740 -21.182849 7.769907 -5.667072 -61.018372 -0.878207 25.135317 6.366340 -16.419576 11.598931 -6.492102 -8.523996 10.018454 22.107374 -1.609602 -3.296095 54.723740 3.501220 19.112108 -1.763886 11.956029 7.189318 5.854334 3.507320 3.570185 
0.578850 0.230001 0.986423 88.858311 3.822569 99.618925 6.274650 4.193297 -3.108863 3.845339 -3.759764 -10.332651 -1.745829 11.458443 -2.878134 0.000000 -0.000000 0.000000 -0.741996 -1.920431 -8.181899 -1.386921 3.347447 -1.660730 5.061873 -6.576818 -3.379125 0.000000 -0.000000 0.000000 0.315995 0.168023 -1.790414 2.934464 -2.944871 -4.408754 -0.521071 1.496411 -7.014023 0.273243 -7.864395 1.104875 4.150696 -6.459748 -1.096609 -21.187042 7.749547 -5.654024 -61.038209 -0.882843 25.129630 6.394709 -16.412020 11.589742 -6.497843 -8.504492 9.982194 22.101704 -1.618763 -3.321636 54.707651 3.477302 19.109997 -1.776348 12.013400 7.168002 5.875403 3.502491 3.502156 
0.578828 0.230152 0.986305 88.881424 3.907022 99.416280 6.403617 4.225071 -2.877670 3.805841 -3.810106 -10.374586 -1.748731 11.450686 -2.855507 0.000000 -0.000000 0.000000 -0.657978 -1.978897 -7.954831 -1.384571 3.360709 -1.675162 5.045323 -6.563246 -3.391674 0.000000 -0.000000 0.000000 0.457013 0.173539 -1.288480 2.885925 -2.951816 -4.811491 -0.493009 1.519505 -6.899345 0.256510 -7.964531 1.086651 4.198124 -6.358347 -1.134968 -21.167466 7.664250 -5.583303 -61.113824 -0.866762 25.105277 6.435833 -16.536483 11.761794 -6.401269 -8.427523 9.855730 22.017972 -1.657604 -3.415337 54.738993 3.413371 19.081906 -1.817732 12.094333 7.237497 5.940587 3.460587 3.376484 
0.578956 0.230184 0.986204 88.854686 3.916297 99.397315 6.418280 4.241671 -2.865510 3.789589 -3.792089 -10.338435 -1.748849 11.425705 -2.870970 0.000000 -0.000000 0.000000 -0.650857 -1.995069 -7.937070 -1.390472 3.365606 -1.680257 5.059416 -6.512503 -3.375817 0.000000 -0.000000 0.000000 0.473341 0.183671 -1.307675 2.897755 -2.977470 -4.758355 -0.496309 1.506514 -6.927312 0.220281 -7.903245 1.227878 4.268468 -6.355282 -1.312947 -21.157596 7.623589 -5.563264 -61.121169 -0.845767 25.050284 6.431091 -16.620020 11.712132 -6.368431 -8.411049 9.813807 21.965279 -1.586340 -3.353866 54.776890 3.449339 19.042373 -1.855569 12.075728 7.238382 5.930780 3.430260 3.414347 
0.578982 0.230245 0.986185 88.845601 3.919112 99.401104 6.418335 4.264705 -2.866367 3.781527 -3.799402 -10.346487 -1.745034 11.425075 -2.866191 0.000000 -0.000000 0.000000 -0.652571 -1.999292 -7.941118 -1.391674 3.367297 -1.674935 5.064013 -6.491371 -3.395367 0.000000 -0.000000 0.000000 0.481855 0.172596 -1.324749 2.900971 -2.984091 -4.749850 -0.499323 1.497493 -6.938561 0.195408 -7.843470 1.242419 4.282155 -6.317767 -1.287726 -21.174291 7.631382 -5.576866 -61.115374 -0.841039 25.033465 6.433395 -16.670975 11.709353 -6.343599 -8.385038 9.797691 21.960813 -1.559230 -3.319285 54.781285 3.481187 19.040100 -1.864906 12.047391 7.232686 5.929621 3.424724 3.421963 
0.579072 0.230312 0.986162 88.837248 3.911546 99.437933 6.406429 4.282011 -2.890375 3.766412 -3.795830 -10.371980 -1.755260 11.419026 -2.851463 0.000000 -0.000000 0.000000 -0.671519 -2.024076 -7.983767 -1.367584 3.365234 -1.669910 5.078040 -6.479637 -3.388827 0.000000 -0.000000 0.000000 0.471422 0.191731 -1.396245 2.907756 -2.987094 -4.702286 -0.504788 1.495054 -6.974814 0.177732 -7.822480 1.260606 4.285913 -6.340550 -1.329475 -21.204513 7.603407 -5.591561 -61.113982 -0.852354 25.039666 6.464632 -16.657565 11.607650 -6.222848 -8.319087 9.813371 21.995670 -1.555751 -3.293508 54.729139 3.500835 18.996468 -1.853872 12.022861 7.137029 5.862396 3.389817 3.462633 
0.579112 0.230299 0.986112 88.818559 3.925697 99.455694 6.400690 4.290707 -2.907852 3.795743 -3.793897 -10.364359 -1.760707 11.427928 -2.869815 0.000000 -0.000000 0.000000 -0.654236 -2.000417 -8.009667 -1.377159 3.378654 -1.658157 5.076076 -6.480244 -3.400557 0.000000 -0.000000 0.000000 0.444772 0.192373 -1.395094 2.910114 -2.982225 -4.705876 -0.498177 1.541231 -7.024851 0.222314 -7.750578 1.327908 4.413139 -6.341051 -1.429459 -21.142284 7.568766 -5.603057 -61.171928 -0.877297 25.064591 6.455414 -16.612603 11.549114 -6.278813 -8.302940 9.846627 22.010028 -1.578777 -3.380096 54.711309 3.433405 18.997703 -1.830891 11.981868 7.145055 5.920987 3.387156 3.488725 
